# xmcd CD database file
#
# Track frame offsets:
#	150
#	31798
#	59858
#	97230
#	127748
#	160389
#	188754
#
# Disc length: 2957 seconds
#
# Revision: 0
# Processed by: cddbd v1.5.2PL0 Copyright (c) Steve Scherf et al.
# Submitted via: CDex 1.51
#
DISCID=5c0b8b07
DTITLE=Aurio Corrá - Free and Light
DYEAR=1900
DGENRE=New Age
TTITLE0=Caminhando Entre Flores
TTITLE1=Despertando no Cheiro da Manhã
TTITLE2=Olhando as Nuvens Brancas
TTITLE3=Escutando o Silêncio do Entardecer
TTITLE4=Fazendo Nada
TTITLE5=Rodando na Chuva
TTITLE6=Contando Estrelas na Imensidão
EXTD=
EXTT0=
EXTT1=
EXTT2=
EXTT3=
EXTT4=
EXTT5=
EXTT6=
PLAYORDER=
